<svg id="uuid-d7ae1b57-655c-4953-b205-ca50cdf91431" data-name="Calque 1" xmlns="http://www.w3.org/2000/svg" viewBox="0 0 3550.59 660.55">
  <path d="m442.23,164.57c-43.28-21.64-94-32.46-152.14-32.46s-108.02,10.82-151.64,32.46c-43.61,21.64-77.59,52.23-101.94,91.79C12.17,295.92,0,342.75,0,396.84s12.17,99.91,36.52,139.47c24.34,39.56,58.32,70.16,101.94,91.8,43.61,21.64,94.16,32.45,151.64,32.45s108.86-10.81,152.14-32.45c43.27-21.64,77.09-52.24,101.43-91.8,24.35-39.56,36.52-86.03,36.52-139.47s-12.17-100.92-36.52-140.48c-24.34-39.56-58.16-70.15-101.43-91.79Zm-44.12,330.15c-20.64,20.64-56.64,30.94-108.02,30.94s-87.4-10.3-108.02-30.94c-20.63-20.62-30.94-53.25-30.94-97.88s10.3-78.43,30.94-99.4c20.62-20.95,56.63-31.44,108.02-31.44s87.39,10.49,108.02,31.44c20.62,20.97,30.93,54.11,30.93,99.4s-10.32,77.26-30.93,97.88Z" style="fill: #fff;"></path>
  <path d="m1068.7,276.65h-9.09c-8.11-42.6-28.4-77.42-60.86-104.47-32.46-27.04-78.78-40.57-138.96-40.57-50.05,0-92.81,10.82-128.31,32.46-35.5,21.64-62.55,52.23-81.14,91.79-18.6,39.56-27.89,86.39-27.89,140.48s9.47,99.91,28.4,139.47c18.92,39.56,46.66,70.16,83.17,91.8,36.52,21.64,81.14,32.45,133.89,32.45,58.15,0,104.12-12.67,137.94-38.04,33.81-25.35,55.44-63.04,64.92-113.09h8.07v141.56h141.93V0h-152.07v276.65Zm0,125.92c-.41,27.62-6.14,50.07-17.2,67.31-11.5,17.92-28.24,30.93-50.21,39.05-21.98,8.11-49.19,12.16-81.65,12.16s-59.34-4.05-80.64-12.16c-21.3-8.12-37.02-21.3-47.17-39.56-10.14-18.26-15.21-42.6-15.21-73.03s5.07-56.63,15.21-74.55c10.14-17.91,25.87-30.93,47.17-39.05,21.3-8.11,48.18-12.17,80.64-12.17,48.69,0,85.71,9.12,111.06,27.38,24.54,17.67,37.21,47.4,38,89.14v15.48Z" style="fill: #fff;"></path>
  <path d="m1686.65,159.49c-36.86-18.26-83.68-27.38-140.48-27.38s-103.63,8.97-144.53,26.87c-40.92,17.93-72.52,42.95-94.84,75.06-22.31,32.12-33.47,69.14-33.47,111.07v3.04h153.16v-4.05c0-29.07,8.45-49.35,25.36-60.87,16.89-11.48,44.63-17.23,83.17-17.23,40.57,0,69.13,5.75,85.71,17.23,16.56,11.51,24.85,33.83,24.85,66.95v15.24c-72.69,7.86-145.38,15.71-218.07,23.57-36.51,4.1-66.94,11.78-91.29,23.06-24.34,11.28-42.6,26.13-54.77,44.58-12.17,18.45-18.26,40.66-18.26,66.61,0,42.37,15.55,75.84,46.66,100.43,31.09,24.6,74.04,36.89,128.82,36.89s102.6-11.43,137.43-34.32c34.82-22.89,57.97-54.14,69.48-93.77h8.12v117.96h142v-298.2c0-44.63-8.97-83.33-26.88-116.14-17.92-32.79-45.31-58.32-82.16-76.58Zm-59.84,348.89c-14.1,18.78-32.21,26.92-54.26,33.3-23.68,6.85-53.76,10.25-90.27,10.25-22.31,0-38.89-3.07-49.7-9.23-10.83-6.15-16.23-16.04-16.23-29.71,0-12.3,4.22-21.34,12.68-27.15,8.45-5.8,21.81-9.38,40.06-10.77,58.83-5.81,117.66-11.61,176.48-17.42-.28,3.18-2.86,29.54-18.76,50.72Z" style="fill: #fff;"></path>
  <path d="m2268.01,159.49c-41.25-18.26-89.26-27.38-144.03-27.38-57.48,0-107.86,10.82-151.13,32.46-43.28,21.64-76.58,52.23-99.91,91.79-23.33,39.56-34.99,86.39-34.99,140.48s11.66,99.91,34.99,139.47c23.33,39.56,56.62,70.16,99.91,91.8,43.27,21.64,93.65,32.45,151.13,32.45s102.78-9.12,144.03-27.38c41.24-18.26,73.36-43.78,96.36-76.58,22.98-32.79,34.48-71.16,34.48-115.12v-14.19h-151.13v8.11c0,32.46-11.16,55.28-33.47,68.46-22.31,13.19-53.43,19.78-93.31,19.78-45.31,0-78.61-9.63-99.91-28.9-21.3-19.27-31.95-51.89-31.95-97.88s10.65-80.46,31.95-99.4c21.3-18.92,54.6-28.4,99.91-28.4,39.89,0,71,6.59,93.31,19.78,22.31,13.18,33.47,36.01,33.47,68.46v8.12h151.13v-14.2c0-43.95-11.5-82.32-34.48-115.12-23-32.79-55.12-58.32-96.36-76.58Z" style="fill: #fff;"></path>
  <path d="m2868.65,160.51c-41.59-18.92-90.11-28.4-145.55-28.4s-105.33,10.82-147.58,32.46c-42.27,21.64-75.23,52.23-98.89,91.79-23.68,39.56-35.5,86.39-35.5,140.48,0,59.51,11.82,108.88,35.5,148.09,23.66,39.22,57.13,68.31,100.41,87.23,43.27,18.92,92.97,28.4,149.1,28.4s101.25-7.96,141.49-23.83c40.22-15.88,71.51-38.04,93.82-66.43,10.6-13.49,18.69-27.9,24.25-43.22,8.12-22.35,8.82-42.96,9.22-54.15.23-6.28.14-11.54,0-15.26h-152.15v14.25c0,21.65-9.12,38.21-27.38,49.69-18.26,11.51-49.7,17.24-94.33,17.24-52.07,0-88.24-9.96-108.53-29.92-18.16-17.86-28.19-45.08-30.09-81.65h413.49c1.34-8.78,2.36-16.9,3.04-24.35.67-7.43,1.01-15.55,1.01-24.34,0-52.74-11.5-97.53-34.48-134.39-23-36.85-55.28-64.75-96.87-83.69Zm-14.7,204.92h-271.63c1.49-38.1,11.56-66.36,30.23-84.72,20.29-19.93,56.12-29.92,107.51-29.92,47.32,0,81.48,8.46,102.44,25.35,20.95,16.91,31.45,44.63,31.45,83.17v6.11Z" style="fill: #fff;"></path>
  <polygon points="3311.62 381.14 3311.62 142.17 3281.24 142.17 3281.24 381.14 3042.27 381.14 3042.27 411.52 3281.24 411.52 3281.24 650.49 3311.62 650.49 3311.62 411.52 3550.59 411.52 3550.59 381.14 3311.62 381.14" style="fill: #fff;"></polygon>
</svg>